# xmcd CD database file
#
# Track frame offsets:
#	150
#	7031
#	21688
#	34233
#	48666
#	70282
#	96638
#	108413
#	126224
#	151897
#	164384
#	188378
#	201357
#	218960
#	230821
#
# Disc length: 3215 seconds
#
# Revision: 0
# Processed by: cddbd v1.5.2PL0 Copyright (c) Steve Scherf et al.
# Submitted via: CDex 1.70beta2
#
DISCID=e00c8d0f
DTITLE=The Bluegrass Brothers - No Reservations
DYEAR=2001
DGENRE=Country
TTITLE0=Big Country
TTITLE1=Some Old Day
TTITLE2=Mr Nelson
TTITLE3='Til The End
TTITLE4=Donnybrook Fair
TTITLE5=Who Will Watch The Home Place
TTITLE6=Teardrops in my eyes
TTITLE7=REservation Blues
TTITLE8=Banjo Lullaby
TTITLE9=Little Red Van
TTITLE10=The Old man's Song
TTITLE11=Darlin' I'll Be Home Soon
TTITLE12=A Place Called Heaven
TTITLE13=Daisy Mae
TTITLE14=Uncle Penn
EXTD=YEAR: 2001
EXTT0=
EXTT1=
EXTT2=
EXTT3=
EXTT4=
EXTT5=
EXTT6=
EXTT7=
EXTT8=
EXTT9=
EXTT10=
EXTT11=
EXTT12=
EXTT13=
EXTT14=
PLAYORDER=
